<?xml version="1.0" encoding="UTF-8"?>
<svg id="Layer_2" data-name="Layer 2" xmlns="http://www.w3.org/2000/svg" viewBox="0 0 683.64 197.37">
  <defs>
    <style>
      .cls-1 {
        fill: #fff;
      }

      .cls-2 {
        fill: #25d366;
      }

      .cls-3 {
        fill: #ff6b35;
      }
    </style>
  </defs>
  <g id="Layer_1-2" data-name="Layer 1">
    <g>
      <path class="cls-1" d="M53.83,79.21c5.43-4.93,12.73-7.39,21.92-7.39,4.93,0,8.98.48,12.15,1.44,3.17.96,6.51,2.61,10.02,4.95l6.76-15.16c-3.09-2.51-6.97-4.45-11.65-5.82-4.68-1.38-10.19-2.07-16.53-2.07-9.6,0-18.1,1.71-25.49,5.14-7.39,3.42-13.46,8.35-18.22,14.78-4.76,6.43-7.89,14.32-9.39,23.67-1.5,9.35-1.04,17.6,1.38,24.74,2.42,7.14,6.91,12.67,13.46,16.6,6.55,3.93,15.3,5.89,26.24,5.89,3.42,0,7.03-.27,10.83-.81,3.8-.54,7.49-1.32,11.09-2.32,3.59-1,6.8-2.25,9.64-3.76l6.89-43.09h-35.45l-2.13,13.9h19.29l-2.69,17.55c-1.8.5-3.58.92-5.32,1.24-3.17.59-6.47.88-9.9.88-9.69,0-16.3-2.61-19.85-7.83-3.55-5.22-4.57-12.42-3.07-21.61,1.25-9.02,4.59-15.99,10.02-20.92Z"/>
      <path class="cls-1" d="M159.42,84.1c-4.09-2.76-9.27-4.13-15.53-4.13s-11.8,1.25-16.6,3.76c-4.8,2.5-8.75,6.03-11.84,10.58-3.09,4.55-5.14,9.96-6.14,16.22-1.09,7.01-.59,13.19,1.5,18.54,2.09,5.34,5.7,9.5,10.83,12.46,5.14,2.96,11.54,4.45,19.23,4.45,4.68,0,9.16-.58,13.47-1.75,4.3-1.17,8.2-2.96,11.71-5.39l-5.01-12.53c-2.92,1.92-5.82,3.32-8.71,4.2-2.88.88-5.87,1.31-8.96,1.31-6.51,0-11.11-1.58-13.78-4.76-2.26-2.68-3.25-6.37-3-11.02h41.96l.5-4.26c1.08-6.26.77-11.75-.94-16.47-1.71-4.72-4.61-8.45-8.71-11.21ZM135.5,94.68c2.17-1.38,4.72-2.07,7.64-2.07,4.26,0,7.31,1.34,9.14,4.01,1.57,2.29,2.19,5.59,1.86,9.9h-26.16c.48-2.24,1.23-4.29,2.25-6.14,1.33-2.42,3.09-4.32,5.26-5.7Z"/>
      <polygon class="cls-1" points="186.73 52.54 172.07 144.72 190.98 144.72 205.64 52.54 186.73 52.54"/>
      <polygon class="cls-1" points="202.63 144.72 221.55 144.72 231.69 81.34 212.78 81.34 202.63 144.72"/>
      <path class="cls-1" d="M287.05,80.59c-.92-.17-1.92-.31-3.01-.44-1.09-.13-2.21-.19-3.38-.19-3.59,0-6.93.71-10.02,2.13-3.09,1.42-5.82,3.59-8.2,6.51-.83,1.02-1.6,2.14-2.33,3.35l.51-10.62h-18.29c-.08,2.67-.29,5.43-.63,8.27-.33,2.84-.71,5.68-1.13,8.52l-7.39,46.59h19.16l4.88-31.69c.67-3.76,1.86-6.93,3.57-9.52,1.71-2.59,3.84-4.53,6.39-5.82,2.55-1.29,5.32-1.94,8.33-1.94,1.84,0,3.36.11,4.57.31,1.21.21,2.61.65,4.2,1.32l2.76-16.78Z"/>
    </g>
    <polygon class="cls-3" points="350.68 91.99 310.1 91.99 315.86 56.42 296.32 56.42 282.29 144.72 301.83 144.72 307.72 108.02 348.18 108.02 342.29 144.72 361.95 144.72 375.98 56.42 356.32 56.42 350.68 91.99"/>
    <path class="cls-3" d="M427.21,84.1c-4.09-2.76-9.27-4.13-15.53-4.13s-11.8,1.25-16.6,3.76c-4.8,2.5-8.75,6.03-11.84,10.58-3.09,4.55-5.14,9.96-6.14,16.22-1.09,7.01-.59,13.19,1.5,18.54,2.09,5.34,5.7,9.5,10.83,12.46,5.14,2.96,11.54,4.45,19.23,4.45,4.68,0,9.16-.58,13.47-1.75,4.3-1.17,8.2-2.96,11.71-5.39l-5.01-12.53c-2.92,1.92-5.82,3.32-8.71,4.2-2.88.88-5.87,1.31-8.96,1.31-6.51,0-11.11-1.58-13.78-4.76-2.26-2.68-3.25-6.37-3-11.02h41.96l.5-4.26c1.08-6.26.77-11.75-.94-16.47-1.71-4.72-4.61-8.45-8.71-11.21ZM403.29,94.68c2.17-1.38,4.72-2.07,7.64-2.07,4.26,0,7.31,1.34,9.14,4.01,1.57,2.29,2.19,5.59,1.86,9.9h-26.16c.48-2.24,1.23-4.29,2.25-6.14,1.33-2.42,3.09-4.32,5.26-5.7Z"/>
    <path class="cls-3" d="M526.91,79.97c-4.84,0-9.44,1.3-13.78,3.88-3.38,2.01-6.22,4.54-8.53,7.56-.87-3.41-2.53-6.07-4.99-7.94-3.09-2.34-7.06-3.51-11.9-3.51s-9.31,1.09-13.15,3.26c-2.99,1.69-5.56,4.07-7.74,7.12l.48-9h-18.29c-.08,2.67-.25,5.39-.5,8.14-.25,2.76-.63,5.51-1.13,8.27l-7.52,46.97h18.91l5.76-35.07c.75-4.59,2.32-8.25,4.7-10.96,2.38-2.71,5.49-4.07,9.33-4.07,3.26,0,5.47.98,6.64,2.94,1.17,1.96,1.42,5.16.75,9.58l-6.01,37.58h18.91l5.64-35.07c.75-4.59,2.36-8.25,4.82-10.96,2.46-2.71,5.57-4.07,9.33-4.07,3.26,0,5.45.98,6.58,2.94,1.13,1.96,1.36,5.16.69,9.58l-5.76,37.58h18.91l5.89-37.08c1.5-9.52.73-16.51-2.32-20.98-3.05-4.47-8.29-6.7-15.72-6.7Z"/>
    <path class="cls-3" d="M602.69,84.1c-4.09-2.76-9.27-4.13-15.53-4.13s-11.8,1.25-16.6,3.76c-4.8,2.5-8.75,6.03-11.84,10.58-3.09,4.55-5.14,9.96-6.14,16.22-1.09,7.01-.59,13.19,1.5,18.54,2.09,5.34,5.7,9.5,10.83,12.46,5.14,2.96,11.54,4.45,19.23,4.45,4.68,0,9.16-.58,13.47-1.75,4.3-1.17,8.2-2.96,11.71-5.39l-5.01-12.53c-2.92,1.92-5.82,3.32-8.71,4.2-2.88.88-5.87,1.31-8.96,1.31-6.51,0-11.11-1.58-13.78-4.76-2.26-2.68-3.25-6.37-3-11.02h41.96l.5-4.26c1.08-6.26.77-11.75-.94-16.47-1.71-4.72-4.61-8.45-8.71-11.21ZM578.77,94.68c2.17-1.38,4.72-2.07,7.64-2.07,4.26,0,7.31,1.34,9.14,4.01,1.57,2.29,2.19,5.59,1.86,9.9h-26.16c.48-2.24,1.23-4.29,2.25-6.14,1.33-2.42,3.09-4.32,5.26-5.7Z"/>
    <path class="cls-3" d="M680.41,86.73c-3.13-4.51-8.54-6.76-16.22-6.76-5.01,0-9.58,1.11-13.72,3.32-3.23,1.73-5.95,4.14-8.19,7.22l.49-9.16h-18.29c-.08,2.67-.25,5.39-.5,8.14-.25,2.76-.63,5.51-1.13,8.27l-7.52,46.97h18.91l5.76-35.82c.75-4.34,2.48-7.81,5.2-10.4,2.71-2.59,6.2-3.88,10.46-3.88,3.34,0,5.74.98,7.2,2.94,1.46,1.96,1.86,5.24,1.19,9.83l-5.89,37.33h18.91l5.89-37.33c1.42-9.27.56-16.16-2.57-20.67Z"/>
    <path class="cls-3" d="M0,181.43s234.86-51.66,668.5-5.26l-43.14,21.2s-91.86-14.56-237.06-21.67c-131.43-6.44-313.22-6.19-388.31,5.72Z"/>
    <g id="Icon">
      <g>
        <path class="cls-2" d="M227.02,70.82c5.77-.16,10.35-5.01,10.19-10.84-.16-5.56-4.63-10.02-10.19-10.19-5.77-.16-10.62,4.41-10.79,10.19-.16,5.83,4.36,10.62,10.19,10.84h.6Z"/>
        <path class="cls-2" d="M249.9,68.75c0,.71-.05,1.36-.11,2.07h12.42c0-.71.11-1.36.11-2.07-.16-24.13-19.61-43.69-43.69-43.86-.71,0-1.36.05-2.07.11v12.48c.71-.05,1.36-.11,2.07-.11,17.22.11,31.11,14.11,31.27,31.38Z"/>
        <path class="cls-2" d="M218.63,0c-.71,0-1.36.11-2.07.11v12.42c.71,0,1.36-.11,2.07-.11,30.89.16,55.9,25.28,56.06,56.28,0,.71-.05,1.36-.11,2.07h12.37c0-.71.11-1.36.11-2.07C286.94,30.83,256.38.11,218.63,0h0Z"/>
      </g>
    </g>
  </g>
</svg>